<svg 
 xmlns="http://www.w3.org/2000/svg"
 xmlns:xlink="http://www.w3.org/1999/xlink"
 width="93px" height="17px">
<path fill-rule="evenodd"  fill="#1cb686"
 d="M92.133,8.407 C91.915,10.106 89.640,11.142 88.459,11.990 C86.404,13.464 84.351,14.937 82.298,16.416 C81.542,16.964 80.472,16.233 80.488,15.348 C80.563,10.978 80.735,6.600 80.996,2.241 C80.994,2.159 80.990,2.080 80.987,1.996 C80.953,0.918 82.200,0.196 83.084,0.758 C85.482,2.280 87.899,3.825 90.214,5.480 C91.191,6.178 92.313,7.008 92.133,8.407 ZM73.774,10.028 C70.857,9.939 67.964,9.520 65.026,9.489 C63.916,9.477 63.629,7.695 64.758,7.456 C67.582,6.855 70.897,6.293 73.774,6.586 C75.876,6.800 75.959,10.094 73.774,10.028 ZM57.853,10.406 C54.559,10.252 51.162,10.118 47.902,9.598 C46.925,9.437 46.912,7.691 47.902,7.551 C51.168,7.083 54.557,7.001 57.853,6.896 C60.055,6.826 60.042,10.510 57.853,10.406 ZM40.504,10.541 C37.584,10.445 34.681,10.152 31.757,10.103 C30.384,10.082 30.394,7.966 31.757,7.912 C34.683,7.802 37.582,7.448 40.504,7.289 C42.535,7.180 42.544,10.609 40.504,10.541 ZM23.038,10.307 C20.635,9.921 18.432,9.715 15.998,9.897 C14.884,9.980 14.931,8.267 15.998,8.138 C18.448,7.845 20.957,7.498 23.421,7.400 C25.447,7.318 25.170,10.653 23.038,10.307 ZM9.739,10.102 C7.096,9.844 4.441,9.726 1.786,9.728 C0.520,9.730 0.530,7.754 1.786,7.713 C4.446,7.628 7.100,7.417 9.739,7.072 C11.609,6.824 11.656,10.288 9.739,10.102 Z"/>
</svg>  