<svg id="BG" xmlns="http://www.w3.org/2000/svg" width="122" height="140.28" viewBox="0 0 122 140.28">
  <defs>
    <style>
      .cls-1, .cls-2, .cls-3 {
        fill: #1cb686;
      }

      .cls-1 {
        opacity: 0.2;
      }

      .cls-2 {
        opacity: 0.32;
      }

      .cls-3 {
        fill-rule: evenodd;
      }
    </style>
  </defs>
  <circle class="cls-1" cx="61" cy="60.985" r="61"/>
  <ellipse class="cls-2" cx="60.999" cy="60.98" rx="52.561" ry="52.58"/>
  <path class="cls-3" d="M957.931,1752.67a44.36,44.36,0,0,0-11.563,86.1c5.908,2.06,12.592,7.75,12.592,14.04a15.639,15.639,0,0,1-.276,2.93,13.936,13.936,0,0,1-3.554,6.59,7.719,7.719,0,1,0,12.6,1.62h0.01c-0.007-.01-0.012-0.01-0.019-0.02a7.893,7.893,0,0,0-1.218-1.72,12.571,12.571,0,0,1-2.435-3.39,14.642,14.642,0,0,1-1.3-6.01c0-6.31,6.726-11.98,12.654-14.06A44.346,44.346,0,0,0,957.931,1752.67Z" transform="translate(-899.5 -1734.91)"/>
</svg>
