<svg xmlns="http://www.w3.org/2000/svg" version="1.1" xmlns:xlink="http://www.w3.org/1999/xlink" xmlns:svgjs="http://svgjs.com/svgjs" x="0" y="0" viewBox="0 0 455.111 455.111" style="enable-background:new 0 0 512 512" xml:space="preserve"><g><circle style="" cx="227.556" cy="227.556" r="227.556" fill="#1cb686" data-original="#1cb686"/><path style="" d="M455.111,227.556c0,125.156-102.4,227.556-227.556,227.556c-72.533,0-136.533-32.711-177.778-85.333&#10;&#9;c38.4,31.289,88.178,49.778,142.222,49.778c125.156,0,227.556-102.4,227.556-227.556c0-54.044-18.489-103.822-49.778-142.222&#10;&#9;C422.4,91.022,455.111,155.022,455.111,227.556z" fill="#128d66" data-original="#128d66"/><path style="" d="M331.378,331.378c-8.533,8.533-22.756,8.533-31.289,0l-72.533-72.533l-72.533,72.533&#10;&#9;c-8.533,8.533-22.756,8.533-31.289,0c-8.533-8.533-8.533-22.756,0-31.289l72.533-72.533l-72.533-72.533&#10;&#9;c-8.533-8.533-8.533-22.756,0-31.289c8.533-8.533,22.756-8.533,31.289,0l72.533,72.533l72.533-72.533&#10;&#9;c8.533-8.533,22.756-8.533,31.289,0c8.533,8.533,8.533,22.756,0,31.289l-72.533,72.533l72.533,72.533&#10;&#9;C339.911,308.622,339.911,322.844,331.378,331.378z" fill="#ffffff" data-original="#ffffff"/><g></g><g></g><g></g><g></g><g></g><g></g><g></g><g></g><g></g><g></g><g></g><g></g><g></g><g></g><g></g></g></svg>