<svg xmlns="http://www.w3.org/2000/svg" xmlns:xlink="http://www.w3.org/1999/xlink" viewBox="0 0 100 100"><defs><linearGradient id="a" y1="50" x2="100" y2="50" gradientUnits="userSpaceOnUse"><stop offset="0" stop-color="#53e0d6"/><stop offset="1" stop-color="#00a89f"/></linearGradient><linearGradient id="c" y1="70.61" x2="53.67" y2="70.61" xlink:href="#a"/><linearGradient id="d" x1="21.08" y1="67.41" x2="82.73" y2="5.76" gradientUnits="userSpaceOnUse"><stop offset="0" stop-color="#fff" stop-opacity="0"/><stop offset="0.54" stop-color="#fff" stop-opacity="0.5"/><stop offset="1" stop-color="#fff" stop-opacity="0"/></linearGradient><linearGradient id="e" x1="26.83" y1="41.22" x2="26.83" y2="100" xlink:href="#d"/></defs><path d="M60.82,0H0V60.82A39.29,39.29,0,0,0,39.18,100H60.82A39.29,39.29,0,0,0,100,60.82V39.18A39.29,39.29,0,0,0,60.82,0ZM26.23,43.85h0Z" style="fill:url(#a)"/><path d="M60.82,0H0V41.35a93.37,93.37,0,0,1,24.88,2.1,39.65,39.65,0,0,1,10.36,5,39.34,39.34,0,0,1,8.59,8,38.77,38.77,0,0,1,5.81,10,37.22,37.22,0,0,1,1.8,5.87s2.36,9.1,2.22,27.32v.4h7.16A39.29,39.29,0,0,0,100,60.82V39.18A39.29,39.29,0,0,0,60.82,0ZM26.23,43.85Z" style="fill:url(#a)"/><path d="M51.44,72.28a37.22,37.22,0,0,0-1.8-5.87,38.77,38.77,0,0,0-5.81-10,39.34,39.34,0,0,0-8.59-8,39.65,39.65,0,0,0-10.36-5A93.37,93.37,0,0,0,0,41.35V60.82A39.29,39.29,0,0,0,39.18,100H53.66v-.4C53.8,81.38,51.44,72.28,51.44,72.28Z" style="fill:url(#c)"/><polygon points="26.23 43.85 26.24 43.85 26.23 43.85 26.23 43.85" style="fill:#53e0d6"/><path d="M69.75,75.52H58.86a2.22,2.22,0,0,1-2.13-1.62,42.56,42.56,0,0,0-3.2-8.33A42.48,42.48,0,0,0,36.3,47.72a41.17,41.17,0,0,0-11.42-4.27,39.65,39.65,0,0,1,10.36,5,39.34,39.34,0,0,1,8.59,8,38.77,38.77,0,0,1,5.81,10,37.22,37.22,0,0,1,1.8,5.87,2.65,2.65,0,0,1-2.58,3.24H27.51a2.65,2.65,0,0,1-2.64-2.65V43.45h0V22.4a2.64,2.64,0,0,1,2.64-2.64H48.75A20.81,20.81,0,0,1,62.89,55.89L72,71.53A2.65,2.65,0,0,1,69.75,75.52Z" style="fill:#fff"/><path d="M60.82,0H0V41.35a93.37,93.37,0,0,1,24.88,2.1,39.65,39.65,0,0,1,10.36,5,39.34,39.34,0,0,1,8.59,8,38.77,38.77,0,0,1,5.81,10,37.22,37.22,0,0,1,1.8,5.87s2.36,9.1,2.22,27.32v.4h7.16A39.29,39.29,0,0,0,100,60.82V39.18A39.29,39.29,0,0,0,60.82,0ZM26.23,43.85Z" style="opacity:0.5;isolation:isolate;fill:url(#d)"/><path d="M51.44,72.28a37.22,37.22,0,0,0-1.8-5.87,38.77,38.77,0,0,0-5.81-10,39.34,39.34,0,0,0-8.59-8,39.65,39.65,0,0,0-10.36-5A93.37,93.37,0,0,0,0,41.35V60.82A39.29,39.29,0,0,0,39.18,100H53.66v-.4C53.8,81.38,51.44,72.28,51.44,72.28Z" style="opacity:0.5;isolation:isolate;fill:url(#e)"/></svg>