<svg 
 xmlns="http://www.w3.org/2000/svg"
 xmlns:xlink="http://www.w3.org/1999/xlink"
 width="49px" height="122px">
<path fill-rule="evenodd"  fill="rgb(107, 255, 149)"
 d="M48.277,61.114 C46.976,65.884 43.522,69.780 38.974,71.718 C34.363,73.614 29.225,73.209 24.850,71.397 C20.423,69.602 16.685,66.222 14.131,62.312 C13.102,60.743 12.227,59.096 11.485,57.397 C9.397,60.036 7.697,63.058 6.545,66.345 C3.926,73.331 4.332,81.420 7.580,88.752 C10.749,96.147 16.283,102.653 22.799,108.380 C24.875,110.238 27.088,112.051 29.377,113.878 C29.350,111.978 29.382,108.856 29.602,106.149 C29.814,103.437 30.206,101.150 30.538,100.766 C32.319,106.359 33.180,118.571 33.246,119.384 C28.356,120.368 20.612,121.888 15.059,120.435 C16.176,119.466 23.158,117.834 26.739,116.929 C25.532,115.991 24.124,115.010 20.065,111.513 C17.372,109.168 14.326,106.299 11.279,102.656 C8.248,99.012 5.255,94.552 3.078,89.110 C0.927,83.715 -0.245,77.088 1.003,70.317 C2.113,64.055 5.067,57.783 9.800,52.636 C9.508,51.578 9.261,50.509 9.064,49.433 C7.734,42.139 8.361,35.499 9.899,30.008 C11.432,24.500 13.637,19.996 16.027,16.426 C20.840,9.270 25.783,5.529 29.328,3.347 C32.921,1.165 35.241,0.454 36.553,0.173 C37.866,-0.117 38.218,0.043 38.322,0.366 C38.523,0.995 33.487,2.374 26.492,8.783 C23.058,11.992 19.262,16.581 16.366,22.891 C14.893,26.016 13.653,29.575 12.969,33.512 C12.253,37.434 12.003,41.731 12.597,46.202 C12.742,47.271 12.938,48.354 13.183,49.441 C18.274,45.237 24.842,42.209 32.314,42.431 C36.594,42.575 41.185,44.320 44.416,47.661 C46.045,49.315 47.381,51.376 48.118,53.737 C48.876,56.090 48.895,58.733 48.277,61.114 ZM43.963,54.921 C43.089,52.285 41.013,49.916 38.365,48.481 C33.051,45.523 25.747,46.667 19.876,50.092 C17.986,51.177 16.201,52.508 14.564,54.041 C15.270,55.917 16.149,57.760 17.250,59.511 C19.857,63.660 23.980,67.197 29.158,68.325 C31.695,68.894 34.438,68.835 36.898,67.918 C39.333,67.006 41.545,65.157 42.944,62.795 C44.364,60.433 44.822,57.556 43.963,54.921 Z"/>
</svg>