<svg xmlns="http://www.w3.org/2000/svg" xmlns:xlink="http://www.w3.org/1999/xlink" preserveAspectRatio="xMidYMid" width="15" height="26" viewBox="0 0 15 26">
  <defs>
    <style>
      .cls-1 {
        fill: #fff;
        fill-rule: evenodd;
      }
    </style>
  </defs>
  <path d="M9.145,5.595 C9.145,5.932 9.145,6.157 9.145,6.380 C9.146,12.140 9.147,17.901 9.148,23.662 C9.148,23.912 9.156,24.164 9.141,24.416 C9.088,25.320 8.389,25.993 7.507,25.998 C6.602,26.005 5.864,25.311 5.851,24.383 C5.830,22.912 5.842,21.444 5.842,19.974 C5.842,15.333 5.843,10.696 5.843,6.055 C5.843,5.943 5.833,5.830 5.824,5.635 C5.663,5.772 5.547,5.858 5.445,5.957 C4.611,6.776 3.783,7.599 2.947,8.416 C2.173,9.172 1.181,9.216 0.489,8.529 C-0.203,7.842 -0.159,6.874 0.616,6.110 C2.487,4.259 4.359,2.415 6.239,0.573 C7.018,-0.186 7.963,-0.197 8.741,0.561 C10.652,2.425 12.554,4.297 14.447,6.177 C15.160,6.887 15.174,7.853 14.521,8.514 C13.849,9.197 12.850,9.190 12.106,8.474 C11.236,7.637 10.384,6.782 9.523,5.936 C9.432,5.845 9.333,5.765 9.145,5.595 Z" class="cls-1"/>
</svg>
