<svg 
 xmlns="http://www.w3.org/2000/svg"
 xmlns:xlink="http://www.w3.org/1999/xlink"
 width="93px" height="17px">
<path fill-rule="evenodd"  fill="#1cb686"
 d="M0.867,8.406 C1.085,10.106 3.360,11.142 4.541,11.989 C6.596,13.464 8.649,14.937 10.701,16.416 C11.458,16.964 12.528,16.233 12.512,15.348 C12.437,10.978 12.264,6.601 12.004,2.240 C12.006,2.159 12.010,2.079 12.012,1.996 C12.047,0.917 10.800,0.195 9.916,0.758 C7.518,2.279 5.101,3.825 2.786,5.481 C1.809,6.177 0.687,7.008 0.867,8.406 ZM19.226,10.028 C22.143,9.939 25.036,9.521 27.974,9.488 C29.084,9.476 29.371,7.694 28.242,7.455 C25.417,6.854 22.103,6.293 19.226,6.586 C17.124,6.800 17.040,10.094 19.226,10.028 ZM35.147,10.406 C38.441,10.251 41.838,10.118 45.097,9.598 C46.075,9.438 46.087,7.692 45.097,7.551 C41.832,7.083 38.442,7.000 35.147,6.897 C32.945,6.826 32.958,10.511 35.147,10.406 ZM52.496,10.541 C55.416,10.444 58.319,10.152 61.243,10.103 C62.616,10.082 62.606,7.966 61.243,7.913 C58.316,7.802 55.417,7.448 52.496,7.288 C50.465,7.179 50.456,10.609 52.496,10.541 ZM69.962,10.307 C72.365,9.919 74.568,9.716 77.002,9.898 C78.116,9.980 78.069,8.267 77.002,8.138 C74.551,7.846 72.043,7.498 69.579,7.400 C67.553,7.318 67.829,10.653 69.962,10.307 ZM83.261,10.101 C85.904,9.844 88.559,9.726 91.214,9.728 C92.480,9.730 92.470,7.753 91.214,7.712 C88.554,7.628 85.900,7.416 83.261,7.071 C81.391,6.824 81.344,10.287 83.261,10.101 Z"/>
</svg>