<svg xmlns="http://www.w3.org/2000/svg" xmlns:xlink="http://www.w3.org/1999/xlink" preserveAspectRatio="xMidYMid" width="122.939" height="12" viewBox="0 0 122.939 12">
  <defs>
    <style>
      .cls-1 {
        fill: #b4c0c3;
        fill-rule: evenodd;
      }
    </style>
  </defs>
  <path d="M122.949,5.870 C122.780,7.142 121.020,7.918 120.106,8.552 C118.516,9.656 116.928,10.759 115.340,11.866 C114.755,12.276 113.927,11.729 113.939,11.066 C113.998,7.795 114.131,4.518 114.332,1.254 C114.331,1.193 114.328,1.133 114.326,1.071 C114.299,0.263 115.264,-0.277 115.948,0.144 C117.803,1.283 119.673,2.440 121.464,3.679 C122.220,4.201 123.088,4.823 122.949,5.870 ZM108.745,7.084 C106.488,7.017 104.250,6.704 101.977,6.680 C101.118,6.671 100.896,5.337 101.770,5.158 C103.955,4.708 106.519,4.288 108.745,4.507 C110.371,4.667 110.436,7.133 108.745,7.084 ZM96.427,7.367 C93.879,7.251 91.251,7.151 88.729,6.762 C87.973,6.642 87.963,5.335 88.729,5.229 C91.255,4.879 93.878,4.817 96.427,4.739 C98.131,4.687 98.121,7.445 96.427,7.367 ZM83.005,7.468 C80.746,7.396 78.500,7.177 76.238,7.140 C75.176,7.124 75.183,5.540 76.238,5.500 C78.502,5.417 80.745,5.152 83.005,5.033 C84.576,4.951 84.583,7.519 83.005,7.468 ZM69.492,7.293 C67.633,7.003 65.928,6.850 64.045,6.986 C63.183,7.048 63.220,5.765 64.045,5.669 C65.941,5.450 67.882,5.190 69.788,5.116 C71.356,5.055 71.142,7.552 69.492,7.293 ZM59.203,7.139 C57.158,6.946 55.104,6.858 53.050,6.859 C52.071,6.861 52.078,5.381 53.050,5.350 C55.108,5.287 57.161,5.129 59.203,4.870 C60.650,4.685 60.686,7.278 59.203,7.139 ZM46.970,7.552 C44.880,7.554 42.793,7.481 40.713,7.285 C39.553,7.177 39.511,5.473 40.713,5.453 C42.807,5.421 44.889,5.310 46.970,5.076 C48.528,4.902 48.599,7.550 46.970,7.552 ZM27.294,7.197 C26.508,7.044 26.743,5.894 27.475,5.863 C29.854,5.778 32.185,5.421 34.550,5.245 C35.870,5.145 36.166,7.347 34.863,7.548 C32.382,7.927 29.745,7.673 27.294,7.197 ZM20.712,7.231 C18.388,7.175 16.063,7.113 13.739,7.050 C12.724,7.023 12.755,5.586 13.739,5.500 C16.063,5.299 18.388,5.104 20.712,4.911 C22.195,4.786 22.226,7.267 20.712,7.231 ZM7.647,7.686 C5.292,7.448 2.932,7.235 0.572,7.061 C-0.231,7.001 -0.244,5.839 0.572,5.808 C2.931,5.718 5.291,5.584 7.647,5.430 C9.121,5.332 9.087,7.833 7.647,7.686 Z" class="cls-1"/>
</svg>
