<?xml version="1.0" encoding="utf-8"?>
<!-- Generator: Adobe Illustrator 27.0.1, SVG Export Plug-In . SVG Version: 6.00 Build 0)  -->
<svg version="1.1" id="BG" xmlns="http://www.w3.org/2000/svg" xmlns:xlink="http://www.w3.org/1999/xlink" x="0px" y="0px"
	 viewBox="0 0 122 140.1" style="enable-background:new 0 0 122 140.1;" xml:space="preserve">
<style type="text/css">
	.st0{opacity:0.2;fill:#14B686;enable-background:new    ;}
	.st1{opacity:0.3;fill:#14B686;enable-background:new    ;}
	.st2{fill-rule:evenodd;clip-rule:evenodd;fill:#14B686;}
</style>
<circle class="st0" cx="61" cy="61" r="61"/>
<ellipse class="st1" cx="61" cy="61" rx="52.6" ry="52.6"/>
<path class="st2" d="M58.4,16.8C34,18.5,15.6,39.7,17.3,64.1c1.2,17.6,12.9,32.9,29.5,38.7c5.9,2.1,12.6,7.8,12.6,14
	c0.1,3.4-1,6.8-3,9.6c-0.5,0.4-1,0.9-1.3,1.4c0,0,0,0,0,0h0c-2.5,3.5-1.7,8.3,1.8,10.7c1.3,0.9,2.9,1.4,4.5,1.4
	c4.3,0,7.7-3.4,7.7-7.7c0-1.6-0.5-3.1-1.4-4.4l0,0c0,0,0,0,0,0c-0.4-0.5-0.8-1-1.3-1.4c-2.1-2.8-3.2-6.2-3.1-9.7
	c0-6.3,6.7-12,12.7-14.1C99,94.7,111.1,69.3,103,46.3C96.4,27.6,78.2,15.5,58.4,16.8z"/>
</svg>
