<svg xmlns="http://www.w3.org/2000/svg" version="1.1" xmlns:xlink="http://www.w3.org/1999/xlink" xmlns:svgjs="http://svgjs.com/svgjs" width="20" height="auto" x="0" y="0" viewBox="0 0 100 100" style="enable-background:new 0 0 512 512" xml:space="preserve" class=""><g><path d="M87.6 58.4c5.8-26-17-49.6-43.8-45.1C29.3 4.3 10 14.5 10 31.8c0 4 1.1 7.8 3 11-5.3 26.1 17.6 49.4 44.4 44.5 18.9 10 39.7-9.9 30.2-28.9zM62.2 74.1c-7 2.9-18.6 2.9-25.6-.8C26.6 68 24.9 56 33.5 56c6.5 0 4.4 7.6 11 10.6 3 1.4 9.5 1.5 13.2-1s3.4-6.4 1.4-8.2c-5.3-4.9-20.6-3-27.6-11.6-3-3.7-3.6-10.3.1-15.1 6.5-8.4 25.6-8.9 33.8-2.6 7.6 5.9 5.5 13.6-.6 13.6-7.3 0-3.5-9.6-15.4-9.6-8.6 0-12 6.1-5.9 9.1C51.7 45.4 72.6 44 72.6 60c0 6.6-4.1 11.5-10.4 14.1z" fill="#ffffff" data-original="#000000" class=""></path></g></svg>