<svg 
 xmlns="http://www.w3.org/2000/svg"
 xmlns:xlink="http://www.w3.org/1999/xlink"
 width="68px" height="24px">
<path fill-rule="evenodd"  fill="rgb(27, 120, 138)"
 d="M67.842,15.628 C65.843,15.695 63.377,15.927 61.029,16.248 C58.656,16.576 56.432,16.972 54.711,17.047 C55.073,16.593 56.375,15.801 58.013,15.082 C59.666,14.327 61.589,13.764 63.023,13.429 C62.102,12.802 61.165,11.943 57.769,10.024 C54.223,8.113 47.922,5.322 39.652,4.754 C35.549,4.472 31.015,4.777 26.457,5.998 C21.900,7.190 17.306,9.233 13.211,12.099 C9.875,14.317 7.619,16.430 5.978,18.120 C4.321,19.805 3.289,21.099 2.513,21.977 C1.034,23.778 0.552,23.918 0.082,23.665 C-0.174,23.510 0.205,22.041 1.749,19.573 C3.277,17.113 6.023,13.639 10.657,10.114 C15.271,6.653 21.917,3.117 30.580,1.843 C39.156,0.567 49.721,1.840 59.446,7.346 C61.434,8.446 63.335,9.771 65.194,11.208 C65.185,9.806 65.124,7.353 64.878,5.207 C64.683,3.019 64.363,1.143 64.579,0.811 C66.366,3.142 67.504,6.830 67.820,9.878 C68.203,12.909 67.827,15.357 67.842,15.628 Z"/>
</svg>