<svg 
 xmlns="http://www.w3.org/2000/svg"
 xmlns:xlink="http://www.w3.org/1999/xlink"
 width="68px" height="24px">
<path fill-rule="evenodd"  fill="rgb(182, 29, 144)"
 d="M67.886,23.665 C67.416,23.918 66.935,23.778 65.456,21.977 C64.680,21.100 63.647,19.805 61.990,18.120 C60.349,16.431 58.094,14.317 54.758,12.099 C50.663,9.234 46.068,7.189 41.512,5.997 C36.954,4.777 32.420,4.472 28.317,4.755 C20.047,5.323 13.745,8.113 10.199,10.025 C6.804,11.942 5.867,12.802 4.945,13.430 C6.380,13.763 8.302,14.327 9.956,15.082 C11.594,15.801 12.895,16.593 13.257,17.047 C11.537,16.971 9.312,16.576 6.940,16.248 C4.592,15.926 2.125,15.696 0.127,15.628 C0.141,15.357 -0.234,12.910 0.148,9.878 C0.464,6.831 1.602,3.142 3.390,0.811 C3.606,1.143 3.285,3.018 3.090,5.207 C2.844,7.353 2.784,9.806 2.775,11.208 C4.634,9.770 6.534,8.447 8.523,7.345 C18.248,1.839 28.812,0.567 37.388,1.843 C46.051,3.117 52.698,6.652 57.312,10.115 C61.945,13.638 64.691,17.113 66.220,19.573 C67.764,22.041 68.143,23.510 67.886,23.665 Z"/>
</svg>