<svg 
 xmlns="http://www.w3.org/2000/svg"
 xmlns:xlink="http://www.w3.org/1999/xlink"
 width="68px" height="23px">
<path fill-rule="evenodd"  fill="rgb(0, 175, 254)"
 d="M67.886,22.873 C67.416,23.126 66.935,22.986 65.456,21.185 C64.680,20.307 63.647,19.012 61.990,17.328 C60.349,15.638 58.094,13.525 54.758,11.307 C50.663,8.442 46.068,6.398 41.512,5.205 C36.954,3.985 32.420,3.680 28.317,3.962 C20.047,4.530 13.745,7.321 10.199,9.233 C6.804,11.150 5.867,12.010 4.945,12.637 C6.380,12.971 8.302,13.534 9.956,14.289 C11.594,15.009 12.895,15.801 13.257,16.255 C11.537,16.179 9.312,15.783 6.940,15.456 C4.592,15.135 2.125,14.904 0.127,14.837 C0.141,14.565 -0.234,12.117 0.148,9.086 C0.464,6.039 1.602,2.350 3.390,0.019 C3.606,0.351 3.285,2.226 3.090,4.415 C2.844,6.560 2.784,9.014 2.775,10.416 C4.634,8.978 6.534,7.655 8.523,6.553 C18.248,1.047 28.812,-0.225 37.388,1.051 C46.051,2.325 52.698,5.860 57.312,9.322 C61.945,12.846 64.691,16.320 66.220,18.781 C67.764,21.249 68.143,22.718 67.886,22.873 Z"/>
</svg>