<svg 
 xmlns="http://www.w3.org/2000/svg"
 xmlns:xlink="http://www.w3.org/1999/xlink"
 width="68px" height="23px">
<path fill-rule="evenodd"  fill="rgb(255, 32, 89)"
 d="M67.842,14.836 C65.843,14.903 63.377,15.135 61.029,15.455 C58.656,15.783 56.432,16.180 54.711,16.256 C55.073,15.802 56.375,15.009 58.013,14.290 C59.666,13.535 61.589,12.971 63.023,12.636 C62.102,12.010 61.165,11.151 57.769,9.232 C54.223,7.321 47.922,4.530 39.652,3.962 C35.549,3.679 31.015,3.985 26.457,5.206 C21.900,6.397 17.306,8.441 13.211,11.307 C9.875,13.525 7.619,15.638 5.978,17.327 C4.321,19.012 3.289,20.307 2.513,21.185 C1.034,22.986 0.552,23.126 0.082,22.873 C-0.174,22.718 0.205,21.249 1.749,18.781 C3.277,16.321 6.023,12.846 10.657,9.321 C15.271,5.860 21.917,2.324 30.580,1.050 C39.156,-0.225 49.721,1.048 59.446,6.554 C61.434,7.655 63.335,8.979 65.194,10.415 C65.185,9.013 65.124,6.561 64.878,4.415 C64.683,2.226 64.363,0.351 64.579,0.019 C66.366,2.350 67.504,6.039 67.820,9.085 C68.203,12.117 67.827,14.565 67.842,14.836 Z"/>
</svg>