<svg 
 xmlns="http://www.w3.org/2000/svg"
 xmlns:xlink="http://www.w3.org/1999/xlink"
 width="68px" height="24px">
<path fill-rule="evenodd"  fill="rgb(74, 185, 2)"
 d="M67.842,15.378 C65.843,15.445 63.377,15.676 61.029,15.997 C58.656,16.324 56.432,16.721 54.711,16.797 C55.073,16.343 56.375,15.550 58.013,14.832 C59.666,14.076 61.589,13.512 63.023,13.178 C62.102,12.551 61.165,11.692 57.769,9.774 C54.223,7.863 47.922,5.072 39.652,4.503 C35.549,4.222 31.015,4.526 26.457,5.748 C21.900,6.939 17.306,8.984 13.211,11.849 C9.875,14.067 7.619,16.179 5.978,17.869 C4.321,19.554 3.289,20.849 2.513,21.727 C1.034,23.527 0.552,23.669 0.082,23.414 C-0.174,23.261 0.205,21.791 1.749,19.323 C3.277,16.862 6.023,13.387 10.657,9.864 C15.271,6.402 21.917,2.866 30.580,1.592 C39.156,0.317 49.721,1.590 59.446,7.094 C61.434,8.197 63.335,9.520 65.194,10.957 C65.185,9.555 65.124,7.103 64.878,4.956 C64.683,2.768 64.363,0.892 64.579,0.560 C66.366,2.891 67.504,6.580 67.820,9.627 C68.203,12.660 67.827,15.106 67.842,15.378 Z"/>
</svg>