<svg 
 xmlns="http://www.w3.org/2000/svg"
 xmlns:xlink="http://www.w3.org/1999/xlink"
 width="68px" height="24px">
<path fill-rule="evenodd"  fill="rgb(64, 239, 159)"
 d="M67.842,15.541 C65.843,15.608 63.377,15.839 61.029,16.160 C58.656,16.488 56.432,16.884 54.711,16.960 C55.073,16.506 56.375,15.714 58.013,14.995 C59.666,14.239 61.589,13.676 63.023,13.341 C62.102,12.714 61.165,11.855 57.769,9.937 C54.223,8.026 47.922,5.235 39.652,4.667 C35.549,4.384 31.015,4.690 26.457,5.911 C21.900,7.102 17.306,9.147 13.211,12.012 C9.875,14.231 7.619,16.343 5.978,18.032 C4.321,19.718 3.289,21.012 2.513,21.889 C1.034,23.690 0.552,23.831 0.082,23.577 C-0.174,23.423 0.205,21.954 1.749,19.486 C3.277,17.026 6.023,13.550 10.657,10.027 C15.271,6.564 21.917,3.029 30.580,1.755 C39.156,0.480 49.721,1.753 59.446,7.258 C61.434,8.359 63.335,9.683 65.194,11.120 C65.185,9.718 65.124,7.266 64.878,5.119 C64.683,2.931 64.363,1.056 64.579,0.724 C66.366,3.055 67.504,6.743 67.820,9.790 C68.203,12.822 67.827,15.269 67.842,15.541 Z"/>
</svg>