<svg 
 xmlns="http://www.w3.org/2000/svg"
 xmlns:xlink="http://www.w3.org/1999/xlink"
 width="68px" height="24px">
<path fill-rule="evenodd"  fill="rgb(255, 176, 1)"
 d="M67.886,23.414 C67.416,23.668 66.935,23.527 65.456,21.727 C64.680,20.849 63.647,19.554 61.990,17.869 C60.349,16.180 58.094,14.067 54.758,11.848 C50.663,8.983 46.068,6.939 41.512,5.748 C36.954,4.527 32.420,4.221 28.317,4.504 C20.047,5.071 13.745,7.863 10.199,9.773 C6.804,11.693 5.867,12.551 4.945,13.178 C6.380,13.513 8.302,14.076 9.956,14.832 C11.594,15.550 12.895,16.342 13.257,16.797 C11.537,16.721 9.312,16.325 6.940,15.997 C4.592,15.677 2.125,15.445 0.127,15.378 C0.141,15.106 -0.234,12.659 0.148,9.627 C0.464,6.579 1.602,2.892 3.390,0.560 C3.606,0.893 3.285,2.768 3.090,4.956 C2.844,7.103 2.784,9.555 2.775,10.957 C4.634,9.520 6.534,8.196 8.523,7.095 C18.248,1.589 28.812,0.316 37.388,1.592 C46.051,2.866 52.698,6.402 57.312,9.864 C61.945,13.388 64.691,16.863 66.220,19.323 C67.764,21.790 68.143,23.259 67.886,23.414 Z"/>
</svg>