<svg 
 xmlns="http://www.w3.org/2000/svg"
 xmlns:xlink="http://www.w3.org/1999/xlink"
 width="68px" height="24px">
<path fill-rule="evenodd"  fill="rgb(247, 144, 60)"
 d="M67.886,23.577 C67.416,23.831 66.935,23.690 65.456,21.890 C64.680,21.012 63.647,19.717 61.990,18.032 C60.349,16.342 58.094,14.230 54.758,12.011 C50.663,9.146 46.068,7.103 41.512,5.911 C36.954,4.690 32.420,4.384 28.317,4.667 C20.047,5.235 13.745,8.025 10.199,9.937 C6.804,11.855 5.867,12.714 4.945,13.342 C6.380,13.676 8.302,14.239 9.956,14.994 C11.594,15.714 12.895,16.506 13.257,16.960 C11.537,16.884 9.312,16.488 6.940,16.161 C4.592,15.840 2.125,15.608 0.127,15.541 C0.141,15.270 -0.234,12.822 0.148,9.790 C0.464,6.743 1.602,3.055 3.390,0.724 C3.606,1.056 3.285,2.930 3.090,5.120 C2.844,7.266 2.784,9.718 2.775,11.119 C4.634,9.683 6.534,8.359 8.523,7.258 C18.248,1.752 28.812,0.479 37.388,1.755 C46.051,3.029 52.698,6.564 57.312,10.026 C61.945,13.551 64.691,17.026 66.220,19.485 C67.764,21.954 68.143,23.423 67.886,23.577 Z"/>
</svg>